<?xml version="1.0" encoding="utf-8"?>
<!-- Generator: Adobe Illustrator 16.0.0, SVG Export Plug-In . SVG Version: 6.00 Build 0)  -->
<!DOCTYPE svg PUBLIC "-//W3C//DTD SVG 1.1//EN" "http://www.w3.org/Graphics/SVG/1.1/DTD/svg11.dtd">
<svg version="1.1" id="Layer_1" xmlns="http://www.w3.org/2000/svg" xmlns:xlink="http://www.w3.org/1999/xlink" x="0px" y="0px"
	 width="96px" height="96px" viewBox="0 0 96 96" enable-background="new 0 0 96 96" xml:space="preserve">
<g>
	<path fill-rule="evenodd" clip-rule="evenodd" fill="#FFD2DD" d="M48.001,0.001C74.51,0.001,96,21.49,96,48
		S74.51,95.999,48.001,95.999C21.492,95.999,0,74.51,0,48S21.492,0.001,48.001,0.001L48.001,0.001z"/>
	<path fill="#58A763" d="M67.82,56.001h-7.818c-4.186,0-7.856,2.148-10.002,5.395V51h-3.999v14c0,5.091-1.381,9.848-3.753,13.961
		l0.038,0.021C42.108,79.281,42,79.626,42,79.999c0,1.106,0.896,2,2,2c0.855,0,1.581-0.538,1.867-1.293
		c2.115-3.743,3.492-7.952,3.95-12.436c1.805,1.095,3.918,1.73,6.184,1.73c6.629,0,12-5.374,12-12
		C68,57.316,67.932,56.652,67.82,56.001z"/>
	<path fill-rule="evenodd" clip-rule="evenodd" fill="#68C375" d="M60.002,62c3.711-2.026,6.418-4.4,7.846-5.8
		C67.939,56.787,68,57.386,68,58.001c0,6.626-5.371,12-12,12c-3.053,0-5.83-1.15-7.948-3.028c0.008-0.098,0.028-0.191,0.038-0.289
		C50.387,65.997,55.881,64.246,60.002,62L60.002,62z"/>
	<path fill="#E74C3C" d="M57,18c-3.778,0-7.397,0.669-10.763,1.874C43.394,18.678,40.28,18,37,18c-0.552,0-1,0.448-1,1v4
		c0,0.551,12.413,4.563,12.413,4.563C51.173,25.465,57,21,57,21c0.553,0,1-0.448,1-1v-1C58,18.448,57.553,18,57,18z"/>
	<path fill="#C0392B" d="M64,21c0-0.552-0.447-1-1-1c-3.682,0-7.165,0.834-10.28,2.319c-1.036-1.261-2.2-2.428-3.534-3.344
		c-1.003,0.253-1.985,0.554-2.948,0.897c1.898,0.801,3.675,1.825,5.291,3.058c-2.207,1.208-4.205,2.752-5.924,4.565
		c-2.533-2.345-5.618-4.224-9.236-5.494c-1.656-0.66-3.391-1.167-5.183-1.503l0.003,0.008c-0.063-0.013-0.122-0.038-0.189-0.038
		c-0.552,0-1,0.447-1,1c0,0.317,0.158,0.589,0.39,0.772l-0.017,0.021c2.216,1.836,3.629,4.607,3.629,7.706V38
		c0,7.731,6.268,13.999,14,13.999c7.731,0,14-6.268,14-13.999V24.999c0-1.304,0.633-2.449,1.598-3.179l-0.021-0.027
		C63.828,21.611,64,21.332,64,21z"/>
	<path fill-rule="evenodd" clip-rule="evenodd" fill="#9A412A" d="M36.52,22.088c3.43,0.311,7.541,1.498,10.57,4.097
		C51.943,31.717,55,39.596,55,48c0,0.825,0.061,1.411,0.053,2.079c-0.34,0.199-0.686,0.379-1.043,0.55C54.021,49.867,54,48.42,54,48
		C54,36.262,46.765,26.244,36.52,22.088L36.52,22.088z"/>
</g>
</svg>
